<svg xmlns="http://www.w3.org/2000/svg" viewBox="0 0 64 64">
  <rect width="64" height="64" rx="14" fill="#0f1c10"/>
  <!-- Pot body (trapezoid) -->
  <path d="M20 38 L17 56 L47 56 L44 38 Z" fill="#92400e"/>
  <!-- Pot rim -->
  <rect x="17" y="33" width="30" height="6" rx="3" fill="#b45309"/>
  <!-- Soil -->
  <ellipse cx="32" cy="38" rx="13" ry="3.5" fill="#78350f"/>
  <!-- Main stem -->
  <path d="M32 36 C32 30 31 21 32 13" stroke="#4ade80" stroke-width="2.5" stroke-linecap="round" fill="none"/>
  <!-- Left leaf -->
  <path d="M32 28 C24 24 17 17 22 9 C28 15 31 24 32 28 Z" fill="#16a34a"/>
  <!-- Right leaf -->
  <path d="M32 21 C40 17 47 10 43 3 C37 9 34 18 32 21 Z" fill="#15803d"/>
  <!-- Top sprout -->
  <path d="M32 13 C35 8 34 3 32 1 C30 6 30 10 32 13 Z" fill="#4ade80"/>
</svg>
